#!OML:ASF \\sashay\E\basketball\basketball\Project 1\Capture day 1\Session 1\Subject.ASF
:FULLY-SPECIFIED
:DEGREES
25
root 0.84867 15.8381 4.45473 178.358 9.94941 -179.674
lowerback 2.95661 0.0325633 0.00380867
upperback 5.34562 0.367044 -0.248829
thorax 3.84737 0.323352 -0.247714
lowerneck -2.41195 0.19887 -12.1373
upperneck -4.29264 1.1856 14.333
head -0.983731 0.769877 6.36386
rclavicle -1.54058e-014 2.98177e-016
rhumerus -42.8736 28.6093 -101.295
rradius 99.224
rwrist -33.0101
rhand -19.265 31.7278
rfingers 7.12502
rthumb 7.0494 1.86519
lclavicle -1.54058e-014 2.98177e-016
lhumerus -43.3434 -27.3422 102.895
lradius 101.94
lwrist 39.5248
lhand -19.7999 32.1161
lfingers 7.12502
lthumb 6.53295 61.9953
rfemur -6.33758 -1.39076 17.0907
rtibia 29.389
rfoot -15.5663 -21.1564
rtoes -24.1652
lfemur -6.95186 10.1893 -11.0503
ltibia 33.2874
lfoot -16.6946 10.0413
ltoes -12.0922
26
root 0.822138 15.8376 4.46854 178.248 10.1014 -179.638
lowerback 3.27682 0.0472942 0.127022
upperback 5.40291 0.398256 -0.188425
thorax 3.72713 0.347747 -0.255885
lowerneck -2.69574 -0.168126 -12.2639
upperneck -4.02712 0.682032 14.3572
head -0.791489 0.528462 6.39456
rclavicle 2.08972e-014 2.98177e-016
rhumerus -42.6831 29.1077 -101.023
rradius 99.087
rwrist -33.1037
rhand -19.3873 31.7177
rfingers 7.12502
rthumb 6.93126 1.8512
lclavicle 2.08972e-014 2.98177e-016
lhumerus -43.4793 -27.2902 103.099
lradius 102.095
lwrist 39.9671
lhand -20.8173 31.8327
lfingers 7.12502
lthumb 5.55075 61.74
rfemur -6.29881 -1.46366 16.9107
rtibia 29.348
rfoot -16.4647 -20.0427
rtoes -20.3387
lfemur -7.46268 10.4447 -10.8704
ltibia 34.4737
lfoot -16.4297 9.04714
ltoes -12.2989
27
root 0.794812 15.8289 4.48191 178.062 10.3952 -179.585
lowerback 3.64858 0.0578137 0.268394
upperback 5.48752 0.429349 -0.132413
thorax 3.60686 0.374585 -0.279167
lowerneck -3.00826 -0.40182 -12.4142
upperneck -3.76559 0.369781 14.4173
head -0.621204 0.384576 6.43889
rclavicle -1.43125e-014 4.07509e-015
rhumerus -42.4251 29.8124 -100.84
rradius 98.8317
rwrist -33.0837
rhand -19.774 31.7749
rfingers 7.12502
rthumb 6.55798 1.89645
lclavicle -1.43125e-014 4.07509e-015
lhumerus -43.4563 -26.922 103.095
lradius 102.052
lwrist 39.8142
lhand -20.9095 31.5354
lfingers 7.12502
lthumb 5.46172 61.4451
rfemur -6.20762 -1.47981 16.9277
rtibia 29.3092
rfoot -14.5682 -20.9992
rtoes -27.4131
lfemur -7.93643 10.6305 -10.6412
ltibia 35.8309
lfoot -16.1621 8.17202
ltoes -12.6612
28
root 0.763354 15.8252 4.50215 178.147 10.6757 -179.349
lowerback 3.81325 0.0540708 0.653069
upperback 5.53485 0.436275 -0.0745267
thorax 3.56565 0.394889 -0.435688
lowerneck -2.88944 -0.672909 -11.4429
upperneck -3.89304 -0.0289877 13.959
head -0.626354 0.172922 6.12432
rclavicle -5.34234e-016 -1.59028e-015
rhumerus -41.9478 30.5626 -100.603
rradius 98.5387
rwrist -33.3812
rhand -20.0537 32.0018
rfingers 7.12502
rthumb 6.28798 2.11511
lclavicle -5.34234e-016 -1.59028e-015
lhumerus -43.2713 -26.4998 102.994
lradius 101.948
lwrist 39.6235
lhand -21.1034 31.4872
lfingers 7.12502
lthumb 5.27452 61.4016
rfemur -6.36202 -1.0708 17.0745
rtibia 29.3168
rfoot -15.1391 -20.6107
rtoes -25.3148
lfemur -8.75482 10.4137 -10.2932
ltibia 37.2837
lfoot -15.9589 7.40392
ltoes -11.38
29
root 0.717884 15.8084 4.5179 178.178 11.2207 -179.102
lowerback 3.87726 0.124018 1.1013
upperback 5.70981 0.553294 0.0116744
thorax 3.71703 0.47854 -0.597165
lowerneck -3.08472 -0.84462 -11.4803
upperneck -3.91142 -0.248968 13.8302
head -0.571495 0.0697056 6.08868
rclavicle 2.75876e-014 -4.52235e-015
rhumerus -41.165 31.4101 -100.099
rradius 98.2388
rwrist -33.841
rhand -19.9092 32.0343
rfingers 7.12502
rthumb 6.42749 2.1518
lclavicle 2.75876e-014 -4.52235e-015
lhumerus -42.841 -26.0445 102.901
lradius 101.803
lwrist 39.4815
lhand -21.4005 31.4244
lfingers 7.12502
lthumb 4.98764 61.3457
rfemur -6.57903 -1.98549 17.0593
rtibia 29.4247
rfoot -14.1148 -20.0763
rtoes -29.8142
lfemur -9.48107 10.2483 -9.94018
ltibia 38.7976
lfoot -15.5855 6.84583
ltoes -11.1529
